# xmcd
#
# Track frame offsets:
#	150
#	11551
#	22094
#	31715
#	40942
#	60089
#	74681
#	86744
#	101318
#	110570
#	115251
#	132819
#	154446
#	162287
#
# Disc length: 2330 seconds
#
# Revision: 0
# Processed by: cddbd v1.5.2PL0 Copyright (c) Steve Scherf et al.
# Submitted via: EZCDAudioConverter 2.1.7.1
#
DISCID=b109180e
DTITLE=Corky Carroll and Friends - Laid Back
DYEAR=1900
DGENRE=
TTITLE0=Lahaina Girl
TTITLE1=Haleiwa
TTITLE2=Love Sick
TTITLE3=Waikiki Shuffle
TTITLE4=War
TTITLE5=Merrit
TTITLE6=Leavin' California Blues
TTITLE7=Hanalei
TTITLE8=Ain't Nothin' (In The World)
TTITLE9=Sparkles
TTITLE10=Easy Ride
TTITLE11=All Pretty Women
TTITLE12=A Walk On Hot Sand
TTITLE13=Maui Chimes
EXTD=
EXTT0=
EXTT1=
EXTT2=
EXTT3=
EXTT4=
EXTT5=
EXTT6=
EXTT7=
EXTT8=
EXTT9=
EXTT10=
EXTT11=
EXTT12=
EXTT13=
PLAYORDER=
